<?xml version="1.0" encoding="utf-8"?>
<!-- Generator: Adobe Illustrator 16.0.0, SVG Export Plug-In . SVG Version: 6.00 Build 0)  -->
<!DOCTYPE svg PUBLIC "-//W3C//DTD SVG 1.1//EN" "http://www.w3.org/Graphics/SVG/1.1/DTD/svg11.dtd">
<svg version="1.1" id="Layer_1" xmlns="http://www.w3.org/2000/svg" xmlns:xlink="http://www.w3.org/1999/xlink" x="0px" y="0px"
	 width="595.279px" height="841.891px" viewBox="0 0 595.279 841.891" enable-background="new 0 0 595.279 841.891"
	 xml:space="preserve">
<g>
	<g>
		<polygon fill="#FFFFFF" points="146.846,211.573 167.851,264.396 187.444,211.573 214.248,211.573 174.594,316.122 
			160.955,316.122 142.613,269.725 124.744,316.122 111.266,316.122 70.355,211.573 97.001,211.573 117.85,266.279 138.071,211.573 
					"/>
		<path fill="#FFFFFF" d="M228.97,316.124h-28.217l48.75-105.962h8.146l47.185,105.962h-27.587l-5.017-11.602h-38.247
			L228.97,316.124z M263.294,284.617l-9.872-22.415l-10.189,22.415H263.294L263.294,284.617z"/>
		<polygon fill="#FFFFFF" points="323.163,316.122 323.163,211.573 349.339,211.573 349.339,294.179 385.235,294.179 
			385.235,316.122 		"/>
		<polygon fill="#FFFFFF" points="430.839,281.953 430.839,316.122 404.659,316.122 404.659,211.573 430.839,211.573 
			430.839,245.902 455.919,211.573 487.737,211.573 455.919,250.916 497.458,316.122 465.477,316.122 439.458,271.292 		"/>
		<polygon fill="#FFFFFF" points="94.707,391.321 75.581,391.321 75.581,369.375 139.535,369.375 139.535,391.321 120.886,391.321 
			120.886,473.924 94.707,473.924 		"/>
		<polygon fill="#FFFFFF" points="183.417,473.928 157.24,473.928 157.24,369.373 183.417,369.373 183.417,409.972 214.139,409.972 
			214.139,369.373 240.313,369.373 240.313,473.928 214.139,473.928 214.139,431.917 183.417,431.917 		"/>
		<polygon fill="#FFFFFF" points="318.677,431.917 285.756,431.917 285.756,451.983 319.614,451.983 319.614,473.928 
			259.584,473.928 259.584,369.373 318.517,369.373 318.517,391.321 285.756,391.321 285.756,409.974 318.677,409.974 		"/>
		<polygon fill="#FFFFFF" points="101.758,629.692 75.581,629.692 75.581,525.143 87.492,525.143 139.847,577.964 139.847,525.143 
			166.023,525.143 166.023,629.692 155.994,629.692 101.758,574.516 		"/>
		<rect x="185.443" y="525.143" fill="#FFFFFF" width="26.183" height="104.549"/>
		<path fill="#FFFFFF" d="M307.074,553.825c-7.682-5.486-13.797-7.676-21.313-7.676c-16.459,0-30.255,14.266-30.255,31.188
			c0,16.937,13.638,31.353,29.78,31.353c12.07,0,22.573-7.99,27.902-21.164h-18.654v-21.787h44.361
			c-0.158,24.457-2.822,35.426-11.285,46.086c-10.656,13.484-24.452,19.904-42.479,19.904c-32.606,0-55.646-22.568-55.646-54.392
			c0-31.346,23.513-54.229,55.646-54.229c10.183,0,19.431,1.877,26.646,5.639c2.507,1.414,6.269,3.92,11.127,7.369L307.074,553.825z
			"/>
		<polygon fill="#FFFFFF" points="383.712,629.692 357.533,629.692 357.533,525.143 383.712,525.143 383.712,565.739 
			414.436,565.739 414.436,525.143 440.612,525.143 440.612,629.692 414.436,629.692 414.436,587.684 383.712,587.684 		"/>
		<polygon fill="#FFFFFF" points="480.094,547.089 460.975,547.089 460.975,525.149 524.926,525.149 524.926,547.089 
			506.271,547.089 506.271,629.692 480.094,629.692 		"/>
		<path fill="#FFFFFF" d="M495.835,466.448c-44.04,0-79.727-35.701-79.727-79.736c0-17.742,5.798-34.125,15.604-47.375
			c-33.92,9.17-58.871,40.144-58.871,76.955c0,44.035,35.689,79.732,79.733,79.732c26.289,0,49.602-12.729,64.112-32.352
			C510.049,465.475,503.061,466.448,495.835,466.448"/>
	</g>
</g>
</svg>
